<svg width="250" height="250" viewBox="0 0 250 250" fill="none" xmlns="http://www.w3.org/2000/svg">
<path d="M125 24C125 17.3726 130.388 11.9341 136.978 12.6366C150.96 14.127 164.577 18.2182 177.116 24.7357C193.214 33.1031 207.06 45.2234 217.484 60.072C227.909 74.9206 234.605 92.061 237.006 110.044C239.407 128.027 237.443 146.323 231.28 163.387C225.117 180.45 214.936 195.779 201.598 208.077C188.259 220.375 172.156 229.281 154.649 234.041C137.142 238.801 118.747 239.276 101.018 235.426C87.2081 232.427 74.1192 226.872 62.4118 219.084C56.8938 215.413 56.225 207.787 60.46 202.689L71.9491 188.859C76.1841 183.761 83.7127 183.165 89.4501 186.483C95.8032 190.156 102.708 192.835 109.927 194.403C121.07 196.823 132.631 196.524 143.635 193.532C154.638 190.54 164.758 184.943 173.142 177.214C181.525 169.485 187.923 159.851 191.797 149.126C195.671 138.402 196.905 126.902 195.396 115.6C193.886 104.298 189.678 93.5251 183.126 84.1928C176.575 74.8604 167.872 67.2428 157.755 61.9839C151.201 58.577 144.177 56.225 136.943 54.9909C130.41 53.8764 125 48.6069 125 41.9795L125 24Z" fill="#646BEE"/>
<path d="M46.3306 188.341C41.1684 192.498 33.5537 191.712 29.9679 186.138C23.5688 176.192 18.7572 165.281 15.7306 153.796C12.704 142.311 11.5133 130.446 12.1793 118.637C12.5525 112.02 18.7911 107.584 25.3311 108.656L43.0737 111.566C49.6138 112.638 53.9383 118.83 53.981 125.457C54.0192 131.397 54.8025 137.324 56.3242 143.098C57.8459 148.872 60.0855 154.416 62.9795 159.603C66.2086 165.391 65.497 172.909 60.3349 177.066L46.3306 188.341Z" fill="#F39D2A"/>
<path d="M30.1932 90.1765C23.9722 87.8914 20.7247 80.9591 23.6563 75.0154C27.3169 67.5936 31.7819 60.596 36.9706 54.1493C41.1259 48.9864 48.7811 49.0109 53.4745 53.6901L66.2071 66.3843C70.9005 71.0635 70.8124 78.6153 66.9891 84.0287C65.7059 85.8455 64.5088 87.7217 63.4016 89.651C60.103 95.3992 53.2913 98.6606 47.0703 96.3756L30.1932 90.1765Z" fill="#23B883"/>
</svg>
